<?xml version="1.0" standalone="no"?>
<!DOCTYPE svg PUBLIC "-//W3C//DTD SVG 20010904//EN"
 "http://www.w3.org/TR/2001/REC-SVG-20010904/DTD/svg10.dtd">
<svg version="1.0" xmlns="http://www.w3.org/2000/svg"
 width="735.000000pt" height="490.000000pt" viewBox="0 0 735.000000 490.000000"
 preserveAspectRatio="xMidYMid meet">

<g transform="translate(0.000000,490.000000) scale(0.100000,-0.100000)"
fill="#000000" stroke="none">
<path d="M3635 4189 c-150 -10 -341 -71 -505 -161 -288 -158 -512 -430 -627
-763 -35 -102 -53 -240 -53 -411 0 -281 50 -467 189 -697 l49 -82 5 -200 c3
-110 11 -219 17 -242 16 -56 79 -126 130 -147 23 -9 81 -19 129 -23 l89 -6 4
-176 c3 -155 6 -180 23 -211 28 -48 75 -73 139 -74 64 0 108 23 153 82 l32 43
15 -28 c38 -73 106 -108 183 -94 56 11 92 36 118 84 11 20 22 37 25 37 3 0 15
-19 28 -43 31 -59 65 -77 145 -77 73 0 118 23 147 74 22 42 32 41 59 -4 45
-72 165 -101 234 -55 13 8 34 34 47 57 22 39 24 56 28 214 l4 171 120 6 c146
8 195 20 242 59 75 62 84 101 90 393 l4 180 70 145 c112 232 138 331 149 550
19 418 -138 798 -442 1063 -299 262 -618 365 -1040 336z m913 -1541 c115 -43
175 -115 187 -224 20 -186 -47 -286 -234 -349 -142 -48 -284 -28 -389 54 -135
107 -176 366 -75 473 24 25 109 60 173 71 61 11 286 -6 338 -25z m-1057 -6
c56 -26 96 -71 104 -115 35 -211 -32 -364 -192 -443 -144 -70 -369 -28 -486
91 -53 55 -68 96 -68 189 0 156 55 232 210 292 27 10 81 13 211 11 156 -2 180
-5 221 -25z m380 -530 c26 -29 97 -196 120 -285 17 -61 5 -96 -41 -120 -29
-15 -56 -17 -168 -15 l-134 3 -29 33 c-16 18 -29 43 -29 57 0 23 21 99 40 140
5 11 23 55 40 97 40 99 76 132 135 125 27 -4 48 -15 66 -35z"/>
</g>
</svg>
